<?xml version="1.0" encoding="UTF-8"?>
<svg version="1.1" xmlns="http://www.w3.org/2000/svg" width="396" height="395">
<path d="M0 0 C130.68 0 261.36 0 396 0 C396 130.35 396 260.7 396 395 C265.32 395 134.64 395 0 395 C0 264.65 0 134.3 0 0 Z " fill="#090808" transform="translate(0,0)"/>
<path d="M0 0 C130.68 0 261.36 0 396 0 C396 130.35 396 260.7 396 395 C265.32 395 134.64 395 0 395 C0 264.65 0 134.3 0 0 Z M167 32 C164.59676197 38.60890459 162.26331224 45.08188415 160.3125 51.8125 C160.10044922 52.52341797 159.88839844 53.23433594 159.66992188 53.96679688 C158.50156589 57.95837267 157.5896123 61.87271389 157 66 C156.18144531 66.0928125 155.36289063 66.185625 154.51953125 66.28125 C150.26186246 67.15074063 146.62980676 68.7135862 142.6875 70.5 C141.95982422 70.82097656 141.23214844 71.14195313 140.48242188 71.47265625 C136.99589636 72.84991537 136.99589636 72.84991537 134 75 C127.53752692 76.1488841 123.7486034 73.36083698 118.3359375 70.02734375 C114.80407108 67.88092844 111.23148505 65.89878832 107.5625 64 C106.42941406 63.401875 105.29632813 62.80375 104.12890625 62.1875 C100.61658839 60.85448548 99.51043268 60.88689133 96 62 C93.75523711 63.66904428 93.75523711 63.66904428 91.66870117 65.87719727 C90.848228 66.69797256 90.02775482 67.51874786 89.18241882 68.36439514 C88.3114003 69.25605881 87.44038177 70.14772247 86.54296875 71.06640625 C85.18852409 72.42934059 85.18852409 72.42934059 83.80671692 73.81980896 C81.41239052 76.22936925 79.03032225 78.65069986 76.65063477 81.07470703 C74.21775911 83.54858392 71.77344533 86.01110191 69.33007812 88.47460938 C64.54278225 93.30601417 59.76708542 98.1486572 55 103 C56.36724705 106.48461374 57.86664036 109.7274413 59.6875 113 C60.47060547 114.43085938 60.47060547 114.43085938 61.26953125 115.890625 C62.47588353 118.0582467 63.70423361 120.21370922 64.94921875 122.359375 C65.58472656 123.47828125 66.22023437 124.5971875 66.875 125.75 C67.47054687 126.77609375 68.06609375 127.8021875 68.6796875 128.859375 C70.42767712 133.01731481 70.80052458 136.69681476 69.30078125 141.01171875 C68.97464844 141.56472656 68.64851563 142.11773437 68.3125 142.6875 C66.41464988 146.15668839 64.79088771 149.66880541 63.25 153.3125 C62.82203125 154.31925781 62.3940625 155.32601562 61.953125 156.36328125 C60.83002371 159.00293798 60.83002371 159.00293798 61 162 C60.41154297 162.04318359 59.82308594 162.08636719 59.21679688 162.13085938 C52.48729685 162.70436641 46.06725696 163.95111864 39.5 165.5 C38.51257812 165.72558594 37.52515625 165.95117188 36.5078125 166.18359375 C31.62412849 167.21656621 31.62412849 167.21656621 27 169 C27 176.26 27 183.52 27 191 C28.65 191 30.3 191 32 191 C31.95514397 195.03510886 31.88461191 199.0689591 31.79248047 203.10327148 C31.76463698 204.46936254 31.74324483 205.83560374 31.72900391 207.2019043 C31.6348136 215.73868547 30.65866657 222.91042437 27.89941406 230.98266602 C26.5126631 235.63490684 26.39944734 240.05067763 26.5 244.875 C26.51063477 245.81754639 26.52126953 246.76009277 26.53222656 247.73120117 C26.75441481 255.98661958 28.19386498 263.23215218 31 271 C31.30035156 271.845625 31.60070312 272.69125 31.91015625 273.5625 C34.34620788 279.63681055 38.03165106 284.83134799 42 290 C42.87785156 291.14662109 42.87785156 291.14662109 43.7734375 292.31640625 C50.80823329 300.85017752 60.16997172 307.55090693 70.6484375 311.16015625 C73 312 73 312 75.1015625 313.12109375 C86.25359265 318.81532822 102.32474051 317.19136646 114.046875 314 C119.1514189 312.2714772 124.09775495 310.23471711 129 308 C128.93039063 308.6084375 128.86078125 309.216875 128.7890625 309.84375 C128.0369901 322.02016026 133.60517176 333.86397973 140 344 C140.66 345.0725 141.32 346.145 142 347.25 C144.13196252 350.18144846 146.34703874 352.52792246 149 355 C149.52980469 355.52335937 150.05960937 356.04671875 150.60546875 356.5859375 C161.22124104 366.59056725 176.26372714 374.40157268 191 375 C192.12277344 375.0515625 193.24554688 375.103125 194.40234375 375.15625 C212.78678114 375.60419568 230.90456626 369.65212529 244.8828125 357.4921875 C251.04971732 351.59413956 255.90949341 345.48315773 260 338 C260.46019531 337.17371094 260.92039062 336.34742188 261.39453125 335.49609375 C265.61438255 327.14563272 267.20622146 318.10918824 269 309 C269.82242188 309.33773438 270.64484375 309.67546875 271.4921875 310.0234375 C291.63157306 318.06988947 309.14659201 317.36110691 329.25 309.8125 C335.90623639 306.86926622 341.43857716 302.64532841 347 298 C347.65742188 297.45730469 348.31484375 296.91460937 348.9921875 296.35546875 C360.94166089 285.47979596 369.4575271 267.64103067 370.5 251.58984375 C370.75288071 241.92046063 369.93011977 232.94807009 366.41796875 223.87890625 C364.18990648 217.43028549 364.42899481 210.69087085 364.3125 203.9375 C364.27925702 202.58134868 364.24476115 201.22522747 364.20898438 199.86914062 C364.1270363 196.57951063 364.05771038 193.29012945 364 190 C365.98 190 367.96 190 370 190 C370 182.74 370 175.48 370 168 C367.64875 167.566875 365.2975 167.13375 362.875 166.6875 C356.20910727 165.45401763 349.59668775 164.06504596 342.98828125 162.55078125 C340.23946016 162.04413579 337.78525985 161.89148338 335 162 C334.9175 161.21625 334.835 160.4325 334.75 159.625 C333.57791139 153.95990507 331.31604685 148.73599214 328.8125 143.53125 C328.44125 142.7578125 328.07 141.984375 327.6875 141.1875 C327.34074219 140.50042969 326.99398438 139.81335938 326.63671875 139.10546875 C325.41791984 135.07520731 326.82230616 132.35962859 328.63671875 128.6875 C329.31495105 127.45536687 329.99881573 126.22632177 330.6875 125 C334.45546518 118.13216673 337.81275195 111.15923521 341 104 C334.24412149 95.94287131 326.8820855 88.51255337 319.49609375 81.03613281 C317.82485584 79.33808709 316.1608256 77.63291879 314.50390625 75.92089844 C312.10250642 73.44077974 309.67924327 70.98406469 307.25 68.53125 C306.14350098 67.37526306 306.14350098 67.37526306 305.01464844 66.19592285 C301.11531188 62.09410748 301.11531188 62.09410748 295.84741211 60.84326172 C292.83371458 62.06755212 290.02895184 63.38234057 287.19140625 64.9765625 C286.11439453 65.564375 285.03738281 66.1521875 283.92773438 66.7578125 C281.68390419 68.00279315 279.44429631 69.2554142 277.20898438 70.515625 C269.00819531 74.96650155 269.00819531 74.96650155 264.35546875 75.12109375 C263.24816406 74.75113281 262.14085937 74.38117188 261 74 C260.22277588 73.75958984 259.44555176 73.51917969 258.64477539 73.27148438 C255.97541457 72.4105459 253.3696052 71.43900111 250.75 70.4375 C249.8528125 70.12748047 248.955625 69.81746094 248.03125 69.49804688 C241.71486881 67.07266997 241.71486881 67.07266997 239.81030273 64.21484375 C239.02048212 62.15623398 238.48457531 60.14983795 238 58 C237.59344362 56.68734363 237.17817393 55.37735181 236.75390625 54.0703125 C236.15721683 52.10726263 235.56764226 50.14227938 234.98242188 48.17578125 C233.28158428 42.59439186 231.19346537 37.48366343 229 32 C208.54 32 188.08 32 167 32 Z " fill="#FEFEFE" transform="translate(0,0)"/>
<path d="M0 0 C20.46 0 40.92 0 62 0 C68 17 68 17 70.0625 25.6875 C71.41286536 30.10885756 72.16466267 32.35804899 75.8515625 35.19140625 C79.19012966 36.75122861 82.48370914 37.90704347 86 39 C87.79619129 39.80244784 89.58838138 40.61395911 91.375 41.4375 C95.56475439 43.32511019 98.53218176 43.01346676 103 42 C105.54210162 40.82376271 107.89439529 39.63326193 110.3125 38.25 C111.62859757 37.52678174 112.94500468 36.80412648 114.26171875 36.08203125 C115.50825218 35.38881086 116.75437435 34.69485022 118 34 C119.86667902 32.96402937 121.74041999 31.94053733 123.625 30.9375 C124.35976563 30.53402344 125.09453125 30.13054688 125.8515625 29.71484375 C128.68150482 28.77324476 130.14854001 29.14880831 133 30 C135.15779114 31.67677307 135.15779114 31.67677307 137.33129883 33.87719727 C138.151772 34.69797256 138.97224518 35.51874786 139.81758118 36.36439514 C140.6885997 37.25605881 141.55961823 38.14772247 142.45703125 39.06640625 C143.35999435 39.97502914 144.26295746 40.88365204 145.19328308 41.81980896 C147.58760948 44.22936925 149.96967775 46.65069986 152.34936523 49.07470703 C154.78224089 51.54858392 157.22655467 54.01110191 159.66992188 56.47460938 C164.45721775 61.30601417 169.23291458 66.1486572 174 71 C172.39360585 75.40501351 170.80790754 79.65819769 168.58984375 83.796875 C168.15736328 84.61027344 167.72488281 85.42367187 167.27929688 86.26171875 C166.83650391 87.08285156 166.39371094 87.90398437 165.9375 88.75 C165.05052363 90.41132082 164.16379577 92.07277434 163.27734375 93.734375 C162.88796631 94.45850586 162.49858887 95.18263672 162.09741211 95.92871094 C161.73526611 96.61223633 161.37312012 97.29576172 161 98 C160.61690674 98.70608398 160.23381348 99.41216797 159.83911133 100.13964844 C158.75643123 102.54000408 159.12802189 103.55846129 160 106 C160.4125 107.155 160.825 108.31 161.25 109.5 C163.00947218 114.15691145 165.01052537 118.70833506 167.01171875 123.265625 C168 126 168 126 168 130 C169.94712891 130.185625 169.94712891 130.185625 171.93359375 130.375 C176.74073034 130.90923079 181.36224069 131.88069752 186.0625 133 C187.57333189 133.35793099 189.08505296 133.71213035 190.59765625 134.0625 C191.25258057 134.21847656 191.90750488 134.37445313 192.58227539 134.53515625 C196.02593967 135.19725226 199.52034381 135.56504298 203 136 C203 143.26 203 150.52 203 158 C201.02 158 199.04 158 197 158 C197 166.91 197 175.82 197 185 C194.21107177 183.60553589 193.80805278 181.84655736 192.4375 179.0625 C185.05773347 165.34961652 171.67422656 154.38596958 157 149 C155.64775896 148.66721927 154.29036964 148.35497687 152.9296875 148.05859375 C152.21014893 147.90044189 151.49061035 147.74229004 150.74926758 147.5793457 C149.32032013 147.28245264 147.88479165 147.01526389 146.4440918 146.78198242 C144.44140625 146.3828125 144.44140625 146.3828125 141 145 C139.16015625 141.76953125 139.16015625 141.76953125 138 138 C137.47019531 136.42412109 137.47019531 136.42412109 136.9296875 134.81640625 C136.58164062 133.74261719 136.23359375 132.66882813 135.875 131.5625 C127.03711769 106.64126428 107.417776 83.5818031 83.609375 71.75 C66.67113088 63.751886 49.46624547 59.59629547 30.6875 59.6875 C29.50341553 59.69168945 28.31933105 59.69587891 27.09936523 59.70019531 C18.3736774 59.81268447 10.41796789 60.56931177 2 63 C1.01 63.26683594 0.02 63.53367188 -1 63.80859375 C-19.78598585 69.42940069 -36.14699371 80.34432998 -50 94 C-50.71929687 94.70640625 -51.43859375 95.4128125 -52.1796875 96.140625 C-63.40354883 107.95047106 -73.11068451 124.75245552 -76.1875 140.8125 C-76.82421875 143.15234375 -76.82421875 143.15234375 -78 145 C-81.85692359 146.77210003 -85.84007274 147.2867271 -90 148 C-102.40948558 151.61522954 -111.83439339 157.98895674 -121 167 C-121.97646484 167.95712891 -121.97646484 167.95712891 -122.97265625 168.93359375 C-128.00551198 174.25404124 -130.98485502 180.37330773 -134 187 C-134.33 187 -134.66 187 -135 187 C-135 177.76 -135 168.52 -135 159 C-136.65 159 -138.3 159 -140 159 C-140 151.74 -140 144.48 -140 137 C-132.2785037 135.05284006 -124.55650103 133.10607364 -116.8125 131.25 C-115.80832031 131.00765625 -114.80414063 130.7653125 -113.76953125 130.515625 C-111.10569506 130.01967806 -108.70166992 129.90121865 -106 130 C-105.79395142 129.12710327 -105.79395142 129.12710327 -105.58374023 128.23657227 C-104.66349267 124.71068855 -103.34193675 121.34626314 -102.0625 117.9375 C-101.79759766 117.21755859 -101.53269531 116.49761719 -101.25976562 115.75585938 C-100.0674095 112.56933942 -98.89523017 109.84284526 -97 107 C-95.98612559 100.14760743 -98.90585108 95.70122081 -102.25 90 C-102.74113281 89.13632813 -103.23226562 88.27265625 -103.73828125 87.3828125 C-106.44192773 82.61668842 -106.44192773 82.61668842 -109.32226562 77.95703125 C-110.484375 76.125 -110.484375 76.125 -112 73 C-110.83115855 69.60934988 -108.67181391 67.39366321 -106.19628906 64.8581543 C-105.4149762 64.05439865 -104.63366333 63.25064301 -103.82867432 62.42253113 C-102.98286804 61.56508804 -102.13706177 60.70764496 -101.265625 59.82421875 C-100.39484314 58.93966507 -99.52406128 58.05511139 -98.62689209 57.14375305 C-96.78382138 55.27741875 -94.93773284 53.41406057 -93.08886719 51.5534668 C-91.19275401 49.64405929 -89.30802865 47.72441944 -87.43261719 45.79467773 C-84.72719361 43.01642313 -81.99960976 40.26183744 -79.265625 37.51171875 C-78.00906097 36.21037239 -78.00906097 36.21037239 -76.72711182 34.88273621 C-75.93319031 34.09474136 -75.1392688 33.30674652 -74.32128906 32.49487305 C-73.28442963 31.4437458 -73.28442963 31.4437458 -72.22662354 30.37138367 C-70 29 -70 29 -66.87654114 29.22007751 C-64.14188837 29.96152952 -61.92195278 30.83961245 -59.43359375 32.1796875 C-58.2105957 32.83130859 -58.2105957 32.83130859 -56.96289062 33.49609375 C-56.12951172 33.95113281 -55.29613281 34.40617187 -54.4375 34.875 C-53.18163086 35.54595703 -53.18163086 35.54595703 -51.90039062 36.23046875 C-48.5836926 38.01092897 -45.31454414 39.80436889 -42.1171875 41.79296875 C-38.89725811 43.62868495 -36.65126663 43.43320113 -33 43 C-31.01802138 42.20206056 -29.19459237 41.24799759 -27.3203125 40.22265625 C-24.5020492 38.73761178 -21.62127953 37.49067062 -18.6875 36.25 C-17.68074219 35.82203125 -16.67398438 35.3940625 -15.63671875 34.953125 C-13 34 -13 34 -10 34 C-9.87044922 33.195625 -9.87044922 33.195625 -9.73828125 32.375 C-8.72815935 26.74055857 -7.27213077 21.32950593 -5.5625 15.875 C-5.35729736 15.21886719 -5.15209473 14.56273437 -4.94067383 13.88671875 C-3.44081058 9.18476183 -1.73740079 4.63306879 0 0 Z " fill="#FACB62" transform="translate(167,32)"/>
<path d="M0 0 C1.22912109 -0.01611328 2.45824219 -0.03222656 3.72460938 -0.04882812 C12.1074346 -0.05325178 19.62176632 1.05830001 27.6875 3.3125 C28.78251831 3.61063599 28.78251831 3.61063599 29.8996582 3.91479492 C57.52846437 11.81949423 78.35740266 30.59370203 92.30859375 55.16796875 C95.63203013 61.52884846 98.6875 68.06202246 98.6875 75.3125 C97.82769531 75.39886719 96.96789062 75.48523438 96.08203125 75.57421875 C77.07776223 77.83317766 60.37374394 86.27807571 48.23828125 101.35546875 C39.31112012 113.40713627 35.02903044 126.61289222 32.6875 141.3125 C31.66269531 140.96316406 30.63789063 140.61382812 29.58203125 140.25390625 C28.22140863 139.79410964 26.86072849 139.3344832 25.5 138.875 C24.82646484 138.64490234 24.15292969 138.41480469 23.45898438 138.17773438 C6.96121 132.62482495 -12.42886484 133.19868396 -28.3125 140.3125 C-29.3025 140.6425 -30.2925 140.9725 -31.3125 141.3125 C-31.45945312 140.24773437 -31.60640625 139.18296875 -31.7578125 138.0859375 C-34.84670608 117.43748548 -43.85986542 100.49447693 -60.6875 87.5625 C-71.44874357 80.46104872 -84.01484999 77.61938792 -96.3125 74.3125 C-95.84060576 68.2520297 -94.52335131 63.84788797 -91.6875 58.5 C-91.3255957 57.80350342 -90.96369141 57.10700684 -90.59082031 56.3894043 C-76.93389015 30.45500165 -55.97192001 12.34593969 -28.04296875 3.3203125 C-18.57187541 0.76162969 -9.82598781 -0.02552205 0 0 Z " fill="#CECECE" transform="translate(197.3125,101.6875)"/>
<path d="M0 0 C11.2481224 9.33445318 18.53004386 22.85024978 20.69140625 37.27734375 C22.21932031 55.80330171 16.58022727 72.116633 4.69140625 86.27734375 C-5.46971223 96.73441714 -19.71187556 104.26334643 -34.45019531 104.51928711 C-51.75643965 104.57840782 -67.29694597 100.10783888 -79.9921875 87.7890625 C-87.1327127 80.04646941 -92.56526944 72.52312957 -95.30859375 62.27734375 C-95.53160156 61.4678125 -95.75460938 60.65828125 -95.984375 59.82421875 C-99.43512676 45.27002765 -97.80958407 28.71310535 -90.03125 15.83203125 C-79.93078478 0.85311004 -66.83367695 -9.67084979 -48.78515625 -13.24609375 C-30.41530273 -15.7642085 -15.00357588 -11.1955617 0 0 Z " fill="#080605" transform="translate(338.30859375,200.72265625)"/>
<path d="M0 0 C12.219129 9.5237329 22.36420624 22.36648062 25 38 C26.5172744 56.04114126 24.26738779 71.17900717 12.859375 85.73046875 C2.40453595 97.81202227 -10.71782838 106.66955018 -27 108 C-46.27100295 109.07386541 -60.27286661 104.00006936 -74.87109375 91.3828125 C-85.11110441 81.8497959 -91.68538153 68.37718548 -92.23828125 54.375 C-92.63202444 35.32811668 -88.58842937 21.44258852 -75.3515625 7.3203125 C-54.98473351 -12.77586095 -24.00203375 -16.26643854 0 0 Z " fill="#8BE447" transform="translate(130,197)"/>
<path d="M0 0 C3.94650181 2.97294425 4.37914604 6.1264702 5.359375 10.77734375 C9.8586931 24.37873065 17.08797903 38.5964131 29.359375 46.77734375 C30.25478331 54.11391508 29.90540586 61.80575139 27.359375 68.77734375 C27.04097656 69.68871094 26.72257812 70.60007812 26.39453125 71.5390625 C20.6897563 86.54050774 10.38775566 98.7263006 -4.3125 105.4921875 C-20.4437817 111.72128571 -36.34271741 113.0693682 -52.703125 106.55859375 C-60.18639154 103.12239993 -65.881206 98.6168938 -71.640625 92.77734375 C-72.28902344 92.13925781 -72.93742188 91.50117188 -73.60546875 90.84375 C-81.83921276 82.1775993 -86.49612603 70.42144148 -88.640625 58.77734375 C-88.80046875 57.94976562 -88.9603125 57.1221875 -89.125 56.26953125 C-89.60775706 51.51295429 -89.45578474 48.81468862 -86.43359375 44.96875 C-84.48768773 43.09205541 -82.53484128 41.25684886 -80.53125 39.4453125 C-71.51193355 31.12072718 -65.52943894 18.79630407 -63.765625 6.65234375 C-63.10491066 3.38547838 -62.24923994 1.96464477 -59.515625 0.02734375 C-40.68043185 -9.74788308 -18.8802595 -10.21432028 0 0 Z " fill="#07090A" transform="translate(227.640625,253.22265625)"/>
<path d="M0 0 C20.46 0 40.92 0 62 0 C68 17 68 17 70.0625 25.6875 C71.41286536 30.10885756 72.16466267 32.35804899 75.8515625 35.19140625 C79.19012966 36.75122861 82.48370914 37.90704347 86 39 C87.79619129 39.80244784 89.58838138 40.61395911 91.375 41.4375 C95.56475439 43.32511019 98.53218176 43.01346676 103 42 C105.54210162 40.82376271 107.89439529 39.63326193 110.3125 38.25 C111.62859757 37.52678174 112.94500468 36.80412648 114.26171875 36.08203125 C115.50825218 35.38881086 116.75437435 34.69485022 118 34 C119.86667902 32.96402937 121.74041999 31.94053733 123.625 30.9375 C124.35976563 30.53402344 125.09453125 30.13054688 125.8515625 29.71484375 C128.68150482 28.77324476 130.14854001 29.14880831 133 30 C135.15779114 31.67677307 135.15779114 31.67677307 137.33129883 33.87719727 C138.151772 34.69797256 138.97224518 35.51874786 139.81758118 36.36439514 C140.6885997 37.25605881 141.55961823 38.14772247 142.45703125 39.06640625 C143.35999435 39.97502914 144.26295746 40.88365204 145.19328308 41.81980896 C147.58760948 44.22936925 149.96967775 46.65069986 152.34936523 49.07470703 C154.78224089 51.54858392 157.22655467 54.01110191 159.66992188 56.47460938 C164.45721775 61.30601417 169.23291458 66.1486572 174 71 C172.39360585 75.40501351 170.80790754 79.65819769 168.58984375 83.796875 C168.15736328 84.61027344 167.72488281 85.42367187 167.27929688 86.26171875 C166.83650391 87.08285156 166.39371094 87.90398437 165.9375 88.75 C165.05052363 90.41132082 164.16379577 92.07277434 163.27734375 93.734375 C162.88796631 94.45850586 162.49858887 95.18263672 162.09741211 95.92871094 C161.73526611 96.61223633 161.37312012 97.29576172 161 98 C160.61690674 98.70608398 160.23381348 99.41216797 159.83911133 100.13964844 C158.75643123 102.54000408 159.12802189 103.55846129 160 106 C160.4125 107.155 160.825 108.31 161.25 109.5 C163.00947218 114.15691145 165.01052537 118.70833506 167.01171875 123.265625 C168 126 168 126 168 130 C169.94712891 130.185625 169.94712891 130.185625 171.93359375 130.375 C176.74073034 130.90923079 181.36224069 131.88069752 186.0625 133 C187.57333189 133.35793099 189.08505296 133.71213035 190.59765625 134.0625 C191.25258057 134.21847656 191.90750488 134.37445313 192.58227539 134.53515625 C196.02593967 135.19725226 199.52034381 135.56504298 203 136 C203 143.26 203 150.52 203 158 C199.37 158 195.74 158 192 158 C192 154.04 192 150.08 192 146 C191.00742187 145.81824219 190.01484375 145.63648438 188.9921875 145.44921875 C186.89006039 145.06414989 184.7906275 144.67086915 182.69384766 144.25756836 C179.13193938 143.55761469 175.64374972 142.96002704 172.03125 142.5546875 C163.17947164 141.36310195 163.17947164 141.36310195 160.04296875 137.73828125 C158.39749257 134.55586953 157.19445053 131.37828026 156 128 C155.41028163 126.55478883 154.81082701 125.113523 154.203125 123.67578125 C152.69981634 120.11829793 151.23535783 116.54834405 149.81103516 112.95849609 C149.27320239 111.65973195 148.69987364 110.37507273 148.09130859 109.10791016 C146.21730974 105.17389442 145.81894356 103.15762745 147 99 C147.84668917 97.17750029 148.76024734 95.38522436 149.72265625 93.62109375 C150.26083984 92.61755859 150.79902344 91.61402344 151.35351562 90.58007812 C152.49536978 88.48037145 153.63860552 86.38141554 154.78320312 84.28320312 C155.32009766 83.28095703 155.85699219 82.27871094 156.41015625 81.24609375 C156.90652588 80.33529053 157.40289551 79.4244873 157.91430664 78.48608398 C159.26680648 75.84118612 159.26680648 75.84118612 159 72 C157.9551479 70.33966471 157.9551479 70.33966471 156.41723633 68.86791992 C155.85277298 68.28439255 155.28830963 67.70086517 154.70674133 67.09965515 C154.08808701 66.48282364 153.46943268 65.86599213 152.83203125 65.23046875 C152.20020432 64.59007156 151.56837738 63.94967438 150.91740417 63.28987122 C149.57822929 61.9392103 148.23378105 60.59376061 146.88452148 59.25317383 C144.8201131 57.19508978 142.78376463 55.11181058 140.74804688 53.02539062 C139.44433187 51.71713009 138.13904406 50.41043462 136.83203125 49.10546875 C136.22349808 48.47851608 135.6149649 47.85156342 134.98799133 47.20561218 C131.7177577 43.80865902 131.7177577 43.80865902 127.29101562 43.01171875 C123.98745959 44.43678214 120.82843908 46.06582567 117.6875 47.8125 C116.3477502 48.53663218 115.00790736 49.26059224 113.66796875 49.984375 C111.59231351 51.11760181 109.5355375 52.26870925 107.48828125 53.453125 C102.76211033 56.0901241 100.2344705 56.10890891 95 55 C91.68939526 53.89110465 88.47428847 52.5869001 85.25 51.25 C84.41984375 50.91484375 83.5896875 50.5796875 82.734375 50.234375 C81.03269462 49.54109781 79.3384576 48.82929081 77.65185547 48.10009766 C74.97984491 46.95256953 74.97984491 46.95256953 72.07080078 46.03662109 C67.84037241 44.50207473 64.85736733 43.35610419 62.3984375 39.46679688 C61.16073636 36.38272248 60.22893479 33.33594936 59.375 30.125 C59.05144531 29.06152344 58.72789062 27.99804688 58.39453125 26.90234375 C56.80230379 21.53940189 55.79795527 16.58568691 55 11 C39.49 11 23.98 11 8 11 C4.05170956 25.55117094 4.05170956 25.55117094 2.9375 34.8125 C1.44476187 39.40741052 0.38272572 41.16154648 -3.75634766 43.67138672 C-10.63026087 46.99076722 -17.75612348 49.55188643 -24.99121094 51.96289062 C-27.42269352 52.80100633 -29.71093826 53.71537495 -32.0390625 54.796875 C-35.77495183 56.31488808 -38.42019879 56.62033168 -42.21655273 55.12963867 C-42.94817627 54.7297876 -43.6797998 54.32993652 -44.43359375 53.91796875 C-45.24763672 53.48033203 -46.06167969 53.04269531 -46.90039062 52.59179688 C-48.15625977 51.89666992 -48.15625977 51.89666992 -49.4375 51.1875 C-51.89721044 49.85396789 -54.35748216 48.52153817 -56.81982422 47.19287109 C-58.67918146 46.17553408 -60.5160444 45.11726236 -62.34765625 44.05078125 C-64.88468051 42.69859173 -64.88468051 42.69859173 -66.97575378 43.76345825 C-68.92172864 44.95218674 -70.41439013 46.14318671 -72.0402832 47.73388672 C-72.60378983 48.28140594 -73.16729645 48.82892517 -73.74787903 49.39303589 C-74.34283676 49.98263092 -74.93779449 50.57222595 -75.55078125 51.1796875 C-76.16898239 51.78886017 -76.78718353 52.39803284 -77.42411804 53.02566528 C-78.72531842 54.31238672 -80.02374974 55.60191363 -81.31958008 56.89404297 C-83.31076886 58.87327926 -85.31984808 60.83309886 -87.33007812 62.79296875 C-88.59229029 64.04572296 -89.85339726 65.2995919 -91.11328125 66.5546875 C-91.71836014 67.14023407 -92.32343903 67.72578064 -92.94685364 68.32907104 C-94.81008845 70.15417358 -94.81008845 70.15417358 -97 73 C-96.48853351 77.14482224 -94.16868557 80.6408531 -92.1875 84.25 C-91.46334893 85.59885488 -90.73938868 86.94781222 -90.015625 88.296875 C-88.88517112 90.38790009 -87.73605394 92.45693888 -86.546875 94.515625 C-83.27487225 100.36836231 -84.32194964 104.33695855 -85.92602539 110.63696289 C-93.30815444 135.59088656 -93.30815444 135.59088656 -100.85400391 141.07373047 C-107.62033818 144.03899262 -114.66516749 144.86867887 -122 145 C-122.75313477 145.01546875 -123.50626953 145.0309375 -124.28222656 145.046875 C-125.85484455 145.05951281 -127.42773041 145.03543143 -129 145 C-129 149.29 -129 153.58 -129 158 C-132.63 158 -136.26 158 -140 158 C-140 151.07 -140 144.14 -140 137 C-132.2785037 135.05284006 -124.55650103 133.10607364 -116.8125 131.25 C-115.80832031 131.00765625 -114.80414063 130.7653125 -113.76953125 130.515625 C-111.10569506 130.01967806 -108.70166992 129.90121865 -106 130 C-105.79395142 129.12710327 -105.79395142 129.12710327 -105.58374023 128.23657227 C-104.66349267 124.71068855 -103.34193675 121.34626314 -102.0625 117.9375 C-101.79759766 117.21755859 -101.53269531 116.49761719 -101.25976562 115.75585938 C-100.0674095 112.56933942 -98.89523017 109.84284526 -97 107 C-95.98612559 100.14760743 -98.90585108 95.70122081 -102.25 90 C-102.74113281 89.13632813 -103.23226562 88.27265625 -103.73828125 87.3828125 C-106.44192773 82.61668842 -106.44192773 82.61668842 -109.32226562 77.95703125 C-110.484375 76.125 -110.484375 76.125 -112 73 C-110.83115855 69.60934988 -108.67181391 67.39366321 -106.19628906 64.8581543 C-105.4149762 64.05439865 -104.63366333 63.25064301 -103.82867432 62.42253113 C-102.98286804 61.56508804 -102.13706177 60.70764496 -101.265625 59.82421875 C-100.39484314 58.93966507 -99.52406128 58.05511139 -98.62689209 57.14375305 C-96.78382138 55.27741875 -94.93773284 53.41406057 -93.08886719 51.5534668 C-91.19275401 49.64405929 -89.30802865 47.72441944 -87.43261719 45.79467773 C-84.72719361 43.01642313 -81.99960976 40.26183744 -79.265625 37.51171875 C-78.00906097 36.21037239 -78.00906097 36.21037239 -76.72711182 34.88273621 C-75.93319031 34.09474136 -75.1392688 33.30674652 -74.32128906 32.49487305 C-73.28442963 31.4437458 -73.28442963 31.4437458 -72.22662354 30.37138367 C-70 29 -70 29 -66.87654114 29.22007751 C-64.14188837 29.96152952 -61.92195278 30.83961245 -59.43359375 32.1796875 C-58.2105957 32.83130859 -58.2105957 32.83130859 -56.96289062 33.49609375 C-56.12951172 33.95113281 -55.29613281 34.40617187 -54.4375 34.875 C-53.18163086 35.54595703 -53.18163086 35.54595703 -51.90039062 36.23046875 C-48.5836926 38.01092897 -45.31454414 39.80436889 -42.1171875 41.79296875 C-38.89725811 43.62868495 -36.65126663 43.43320113 -33 43 C-31.01802138 42.20206056 -29.19459237 41.24799759 -27.3203125 40.22265625 C-24.5020492 38.73761178 -21.62127953 37.49067062 -18.6875 36.25 C-17.68074219 35.82203125 -16.67398438 35.3940625 -15.63671875 34.953125 C-13 34 -13 34 -10 34 C-9.87044922 33.195625 -9.87044922 33.195625 -9.73828125 32.375 C-8.72815935 26.74055857 -7.27213077 21.32950593 -5.5625 15.875 C-5.35729736 15.21886719 -5.15209473 14.56273437 -4.94067383 13.88671875 C-3.44081058 9.18476183 -1.73740079 4.63306879 0 0 Z " fill="#0A0909" transform="translate(167,32)"/>
<path d="M0 0 C11.2481224 9.33445318 18.53004386 22.85024978 20.69140625 37.27734375 C22.21932031 55.80330171 16.58022727 72.116633 4.69140625 86.27734375 C-5.46971223 96.73441714 -19.71187556 104.26334643 -34.45019531 104.51928711 C-51.75643965 104.57840782 -67.29694597 100.10783888 -79.9921875 87.7890625 C-87.1327127 80.04646941 -92.56526944 72.52312957 -95.30859375 62.27734375 C-95.53160156 61.4678125 -95.75460938 60.65828125 -95.984375 59.82421875 C-99.43512676 45.27002765 -97.80958407 28.71310535 -90.03125 15.83203125 C-79.93078478 0.85311004 -66.83367695 -9.67084979 -48.78515625 -13.24609375 C-30.41530273 -15.7642085 -15.00357588 -11.1955617 0 0 Z M-44.4453125 -0.9765625 C-45.49130615 -0.39028076 -46.5372998 0.19600098 -47.61499023 0.80004883 C-48.73075439 1.43193115 -49.84651855 2.06381348 -50.99609375 2.71484375 C-52.68810913 3.66750122 -52.68810913 3.66750122 -54.41430664 4.6394043 C-61.91741771 8.87954575 -69.35646862 13.21048717 -76.7109375 17.703125 C-79.30859375 19.27734375 -79.30859375 19.27734375 -81.30859375 20.27734375 C-81.30859375 25.22734375 -81.30859375 30.17734375 -81.30859375 35.27734375 C-79.65859375 35.27734375 -78.00859375 35.27734375 -76.30859375 35.27734375 C-76.30859375 45.50734375 -76.30859375 55.73734375 -76.30859375 66.27734375 C-77.95859375 66.27734375 -79.60859375 66.27734375 -81.30859375 66.27734375 C-81.30859375 69.90734375 -81.30859375 73.53734375 -81.30859375 77.27734375 C-52.92859375 77.27734375 -24.54859375 77.27734375 4.69140625 77.27734375 C4.69140625 73.97734375 4.69140625 70.67734375 4.69140625 67.27734375 C2.71140625 67.27734375 0.73140625 67.27734375 -1.30859375 67.27734375 C-1.30859375 56.38734375 -1.30859375 45.49734375 -1.30859375 34.27734375 C0.67140625 34.27734375 2.65140625 34.27734375 4.69140625 34.27734375 C4.69140625 29.65734375 4.69140625 25.03734375 4.69140625 20.27734375 C3.3353125 19.5503125 1.97921875 18.82328125 0.58203125 18.07421875 C-10.15590925 12.28388628 -20.75280757 6.34569376 -31.13574219 -0.06347656 C-32.31185059 -0.78422363 -32.31185059 -0.78422363 -33.51171875 -1.51953125 C-34.54280762 -2.15906738 -34.54280762 -2.15906738 -35.59472656 -2.81152344 C-39.14029956 -4.6964349 -41.1938754 -2.80443501 -44.4453125 -0.9765625 Z " fill="#EE8441" transform="translate(338.30859375,200.72265625)"/>
<path d="M0 0 C9.04952352 7.5412696 16.70304959 15.74899733 24 25 C24.52335937 25.65613281 25.04671875 26.31226563 25.5859375 26.98828125 C34.87716323 38.97447577 44.93441569 52.1084078 43 68 C41.25427463 74.54647015 37.42107214 78.22025593 32 82 C25.36972764 85.59773795 19.79989864 87.13799899 12.25 87.0625 C11.07953125 87.05347656 9.9090625 87.04445313 8.703125 87.03515625 C7.36507812 87.01775391 7.36507812 87.01775391 6 87 C6 90.63 6 94.26 6 98 C2.37 98 -1.26 98 -5 98 C-5 94.37 -5 90.74 -5 87 C-7.5678125 87.12375 -7.5678125 87.12375 -10.1875 87.25 C-20.06848338 87.23832035 -29.55615994 84.65194218 -37 78 C-42.21788756 71.13435847 -42.69532602 65.41655821 -42 57 C-38.7829732 42.48866327 -27.00611346 29.18788243 -17.30859375 18.45556641 C-15.60733117 16.56322918 -13.96279213 14.62430119 -12.3125 12.6875 C-8.42308492 8.24933082 -4.21371321 4.12771906 0 0 Z " fill="#050805" transform="translate(96,196)"/>
<path d="M0 0 C3.94650181 2.97294425 4.37914604 6.1264702 5.359375 10.77734375 C9.8586931 24.37873065 17.08797903 38.5964131 29.359375 46.77734375 C30.25478331 54.11391508 29.90540586 61.80575139 27.359375 68.77734375 C27.04097656 69.68871094 26.72257812 70.60007812 26.39453125 71.5390625 C20.6897563 86.54050774 10.38775566 98.7263006 -4.3125 105.4921875 C-20.4437817 111.72128571 -36.34271741 113.0693682 -52.703125 106.55859375 C-60.18639154 103.12239993 -65.881206 98.6168938 -71.640625 92.77734375 C-72.28902344 92.13925781 -72.93742188 91.50117188 -73.60546875 90.84375 C-81.83921276 82.1775993 -86.49612603 70.42144148 -88.640625 58.77734375 C-88.80046875 57.94976562 -88.9603125 57.1221875 -89.125 56.26953125 C-89.60775706 51.51295429 -89.45578474 48.81468862 -86.43359375 44.96875 C-84.48768773 43.09205541 -82.53484128 41.25684886 -80.53125 39.4453125 C-71.51193355 31.12072718 -65.52943894 18.79630407 -63.765625 6.65234375 C-63.10491066 3.38547838 -62.24923994 1.96464477 -59.515625 0.02734375 C-40.68043185 -9.74788308 -18.8802595 -10.21432028 0 0 Z M-48.578125 13.08984375 C-53.54697374 20.06003435 -54.52707115 27.32924331 -53.640625 35.77734375 C-52.42765366 40.53784086 -50.33418393 44.672873 -47.640625 48.77734375 C-48.6925 48.85984375 -49.744375 48.94234375 -50.828125 49.02734375 C-60.29699852 50.23828317 -68.85577437 53.28215507 -76.640625 58.77734375 C-76.42481875 69.56765622 -70.68201544 79.10907068 -63.453125 86.77734375 C-58.10009954 91.78382348 -52.43086032 95.08191147 -45.640625 97.77734375 C-44.70992187 98.14988281 -43.77921875 98.52242188 -42.8203125 98.90625 C-30.54237249 102.26986256 -16.82771473 99.94649498 -5.6796875 94.26953125 C4.66116354 88.17834502 12.84789657 79.16244109 16.328125 67.54296875 C17.06652333 64.63039756 17.74720064 61.71876692 18.359375 58.77734375 C12.70543489 55.80498666 7.11693297 53.4987296 1.046875 51.52734375 C0.24958984 51.25921875 -0.54769531 50.99109375 -1.36914062 50.71484375 C-5.9043901 49.20762062 -5.9043901 49.20762062 -10.640625 48.77734375 C-10.2796875 48.16890625 -9.91875 47.56046875 -9.546875 46.93359375 C-4.89890613 38.15409699 -3.54032446 28.62740653 -6.4921875 19 C-9.59102917 12.83393748 -14.82371975 7.63590219 -21.03125 4.61328125 C-32.05184368 1.08273178 -41.35546039 4.49992576 -48.578125 13.08984375 Z " fill="#C9EFF3" transform="translate(227.640625,253.22265625)"/>
<path d="M0 0 C6.0312283 4.48475951 10.35085921 10.1411338 15 16 C15.69609375 16.84175781 16.3921875 17.68351562 17.109375 18.55078125 C24.06426256 27.00177835 31.7835896 36.43122419 33.5625 47.5 C32.77854344 52.37795193 30.891682 54.99385043 27 58 C20.08115061 61.41716296 13.79074804 61 6 61 C6 48.79 6 36.58 6 24 C2.37 24 -1.26 24 -5 24 C-5 36.21 -5 48.42 -5 61 C-16.04824503 61 -21.07410986 60.99997585 -29.5 55.3125 C-31.88268543 51.6391933 -32.36486634 48.34397476 -32 44 C-28.01557523 30.75696971 -16.30210886 17.80822736 -7 8 C-5.638477 6.4648262 -4.28374627 4.92358789 -2.9375 3.375 C-2.36902344 2.72273437 -1.80054687 2.07046875 -1.21484375 1.3984375 C-0.81394531 0.93695313 -0.41304687 0.47546875 0 0 Z " fill="#369F2F" transform="translate(96,211)"/>
<path d="M0 0 C-1.94218232 8.4161234 -7.46017302 14.28947118 -14.5 18.9375 C-20.99389241 22.97708307 -27.27586386 24.37655823 -34.875 24.3125 C-35.57753906 24.30686035 -36.28007812 24.3012207 -37.00390625 24.29541016 C-47.51066867 24.05022 -54.64617077 20.47184952 -61.94921875 13.0078125 C-65.00662267 9.61069703 -68.08731856 6.18399066 -70 2 C-69.67 1.01 -69.34 0.02 -69 -1 C-66.68970608 -2.01640868 -64.5236478 -2.82206176 -62.125 -3.5625 C-61.44026611 -3.77865967 -60.75553223 -3.99481934 -60.05004883 -4.2175293 C-40.01800719 -10.38357981 -18.87969864 -9.89597089 0 0 Z " fill="#45D3E8" transform="translate(233,318)"/>
<path d="M0 0 C4.3736471 2.53556652 7.20296276 5.57389427 9.45703125 10.08203125 C8.45703125 13.08203125 8.45703125 13.08203125 6.609375 14.25 C5.87847656 14.58644531 5.14757812 14.92289063 4.39453125 15.26953125 C3.66105469 15.61371094 2.92757812 15.95789063 2.171875 16.3125 C1.60597656 16.56644531 1.04007813 16.82039063 0.45703125 17.08203125 C-0.16171875 16.09203125 -0.78046875 15.10203125 -1.41796875 14.08203125 C-3.2541345 11.83841662 -4.14473753 11.15705126 -7.03125 10.61328125 C-9.61952949 10.58331564 -11.99601819 10.61321203 -14.54296875 11.08203125 C-17.2278404 13.7669029 -16.80066324 15.14680106 -16.80859375 18.89453125 C-16.81117188 20.05210937 -16.81375 21.2096875 -16.81640625 22.40234375 C-16.80867187 23.61664063 -16.8009375 24.8309375 -16.79296875 26.08203125 C-16.80070313 27.29632813 -16.8084375 28.510625 -16.81640625 29.76171875 C-16.81382812 30.91929687 -16.81125 32.076875 -16.80859375 33.26953125 C-16.80633789 34.33558594 -16.80408203 35.40164062 -16.80175781 36.5 C-16.80177673 39.24526586 -16.80177673 39.24526586 -14.54296875 41.08203125 C-12.21058808 41.47704354 -12.21058808 41.47704354 -9.60546875 41.45703125 C-8.29255859 41.49957031 -8.29255859 41.49957031 -6.953125 41.54296875 C-4.37104742 41.3012404 -4.37104742 41.3012404 -2.7265625 39.05859375 C-2.33597656 38.40632813 -1.94539063 37.7540625 -1.54296875 37.08203125 C-3.19296875 37.08203125 -4.84296875 37.08203125 -6.54296875 37.08203125 C-6.54296875 33.45203125 -6.54296875 29.82203125 -6.54296875 26.08203125 C-1.26296875 26.08203125 4.01703125 26.08203125 9.45703125 26.08203125 C10.17835849 42.23976136 10.17835849 42.23976136 5.98046875 47.5625 C0.99252669 52.53765247 -2.59489372 53.34625352 -9.54296875 53.58203125 C-15.48525007 53.39278662 -18.95124145 52.87519728 -23.54296875 49.08203125 C-28.91226564 42.15846421 -28.81625452 36.3885909 -28.89306641 27.9050293 C-28.91766907 25.91872634 -28.97426485 23.93290342 -29.03125 21.94726562 C-29.10018443 14.406605 -28.82949142 8.77818628 -23.54296875 3.08203125 C-17.13875655 -2.36836211 -7.83998638 -2.83010261 0 0 Z " fill="#0A0A0A" transform="translate(250.54296875,128.91796875)"/>
<path d="M0 0 C1.10537109 0.01933594 2.21074219 0.03867188 3.34960938 0.05859375 C4.48333984 0.10886719 5.61707031 0.15914063 6.78515625 0.2109375 C8.52635742 0.25154297 8.52635742 0.25154297 10.30273438 0.29296875 C13.15184691 0.36331721 15.99999704 0.47092359 18.84765625 0.5859375 C18.84765625 4.2159375 18.84765625 7.8459375 18.84765625 11.5859375 C11.58765625 11.5859375 4.32765625 11.5859375 -3.15234375 11.5859375 C-3.15234375 15.2159375 -3.15234375 18.8459375 -3.15234375 22.5859375 C3.77765625 22.5859375 10.70765625 22.5859375 17.84765625 22.5859375 C17.84765625 25.8859375 17.84765625 29.1859375 17.84765625 32.5859375 C10.91765625 32.5859375 3.98765625 32.5859375 -3.15234375 32.5859375 C-3.15234375 36.2159375 -3.15234375 39.8459375 -3.15234375 43.5859375 C4.10765625 43.5859375 11.36765625 43.5859375 18.84765625 43.5859375 C18.84765625 47.2159375 18.84765625 50.8459375 18.84765625 54.5859375 C14.82518928 54.74840064 10.80932247 54.86709242 6.78515625 54.9609375 C5.65142578 55.01121094 4.51769531 55.06148437 3.34960938 55.11328125 C1.69155273 55.14228516 1.69155273 55.14228516 0 55.171875 C-1.01070557 55.2032959 -2.02141113 55.2347168 -3.06274414 55.26708984 C-7.5539582 54.27692886 -10.41828954 52.29624653 -13.15234375 48.5859375 C-14.13299376 45.38137383 -14.13639457 42.35710303 -14.08203125 39.0234375 C-14.08872833 38.11392334 -14.09542542 37.20440918 -14.10232544 36.26733398 C-14.10707302 34.35103958 -14.09426581 32.43463059 -14.06494141 30.51855469 C-14.02743584 27.59312028 -14.06460652 24.6752019 -14.109375 21.75 C-14.10474904 19.88279598 -14.09577982 18.01559663 -14.08203125 16.1484375 C-14.09620087 15.27952881 -14.11037048 14.41062012 -14.12496948 13.51538086 C-14.03070473 10.00775131 -13.86545861 7.55368587 -11.74809265 4.68026733 C-8.05677563 1.22671881 -5.15492804 -0.16025683 0 0 Z " fill="#060606" transform="translate(150.15234375,127.4140625)"/>
<path d="M0 0 C0.93134766 0.00902344 1.86269531 0.01804687 2.82226562 0.02734375 C5.11078823 0.05081578 7.39917779 0.08668391 9.6875 0.125 C9.6875 3.755 9.6875 7.385 9.6875 11.125 C7.66496094 11.19847656 7.66496094 11.19847656 5.6015625 11.2734375 C3.83852041 11.34846057 2.07550061 11.42400859 0.3125 11.5 C-0.57695312 11.5309375 -1.46640625 11.561875 -2.3828125 11.59375 C-3.23359375 11.63242188 -4.084375 11.67109375 -4.9609375 11.7109375 C-5.74645996 11.7423584 -6.53198242 11.7737793 -7.34130859 11.80615234 C-9.54252939 11.9649465 -9.54252939 11.9649465 -11.3125 14.125 C-10.99051034 17.22426819 -10.99051034 17.22426819 -10.3125 20.125 C-9.73242188 20.22296875 -9.15234375 20.3209375 -8.5546875 20.421875 C-2.12322426 21.65298017 3.48166042 23.81236054 7.6875 29.125 C9.38629947 34.55403048 9.71560957 40.76034799 7.4375 46 C4.15058259 49.99125686 1.72812109 52.62785055 -3.3125 54.125 C-6.7541802 54.36351404 -10.17724554 54.31335097 -13.625 54.25 C-14.55634766 54.24097656 -15.48769531 54.23195312 -16.44726562 54.22265625 C-18.73578823 54.19918422 -21.02417779 54.16331609 -23.3125 54.125 C-23.3125 50.495 -23.3125 46.865 -23.3125 43.125 C-21.96414062 43.07601562 -20.61578125 43.02703125 -19.2265625 42.9765625 C-17.46352041 42.90153943 -15.70050061 42.82599141 -13.9375 42.75 C-12.60332031 42.70359375 -12.60332031 42.70359375 -11.2421875 42.65625 C-10.39140625 42.61757812 -9.540625 42.57890625 -8.6640625 42.5390625 C-7.87854004 42.5076416 -7.09301758 42.4762207 -6.28369141 42.44384766 C-4.08247061 42.2850535 -4.08247061 42.2850535 -2.3125 40.125 C-1.89583333 37.625 -1.89583333 37.625 -2.3125 35.125 C-5.23409152 32.81751577 -5.23409152 32.81751577 -9.0625 32.875 C-14.03703749 32.37020376 -17.09744268 29.83534993 -20.3125 26.125 C-23.39511817 21.23640351 -23.25055074 15.68223998 -22.3125 10.125 C-20.04436926 6.0602039 -17.24748381 3.23689368 -13.21875 0.921875 C-8.82265257 -0.28350655 -4.53356159 -0.08330219 0 0 Z " fill="#090909" transform="translate(202.3125,127.875)"/>
<path d="M0 0 C4.60472604 1.84189041 6.88958968 4.54468933 9 9 C9.80285716 15.50314299 9.8410411 21.45182952 6 27 C3.64385456 29.84700908 1.63272114 30.78597288 -2.0859375 31.2734375 C-6.34284545 31.46231055 -8.35074423 31.4798847 -11.875 28.875 C-15.90177834 23.42700578 -17.62045939 19.32205858 -17.42578125 12.5390625 C-16.72615227 8.36696309 -14.75488121 5.16617334 -12 2 C-7.94685541 -0.7020964 -4.7544315 -0.52827017 0 0 Z " fill="#F8F8F8" transform="translate(202,268)"/>
<path d="M0 0 C3.32854368 1.67421769 6.50430721 3.56621647 9.6875 5.5 C11.37751872 6.51273574 13.06886926 7.52325321 14.76171875 8.53125 C15.50381592 8.98048828 16.24591309 9.42972656 17.01049805 9.89257812 C19.10049319 11.13632946 19.10049319 11.13632946 22 12 C22 12.66 22 13.32 22 14 C4.84 14 -12.32 14 -30 14 C-30 13.34 -30 12.68 -30 12 C-29.27296875 11.64808594 -28.5459375 11.29617187 -27.796875 10.93359375 C-21.20564235 7.69712951 -14.95166381 4.22070751 -8.7890625 0.22265625 C-5.15184907 -1.37180846 -3.7927139 -1.20656565 0 0 Z " fill="#DA4649" transform="translate(304,211)"/>
<path d="M0 0 C3.63 0 7.26 0 11 0 C11 10.89 11 21.78 11 33 C7.37 33 3.74 33 0 33 C0 22.11 0 11.22 0 0 Z " fill="#EDEDED" transform="translate(273,235)"/>
<path d="M0 0 C3.63 0 7.26 0 11 0 C11 10.89 11 21.78 11 33 C7.37 33 3.74 33 0 33 C0 22.11 0 11.22 0 0 Z " fill="#EDEDED" transform="translate(316,235)"/>
<path d="M0 0 C3.3 0 6.6 0 10 0 C10 10.23 10 20.46 10 31 C6.7 31 3.4 31 0 31 C0 20.77 0 10.54 0 0 Z " fill="#FBFBFB" transform="translate(295,236)"/>
<path d="M0 0 C1.98 0 3.96 0 6 0 C6 0.33 6 0.66 6 1 C4.35 1 2.7 1 1 1 C1 11.23 1 21.46 1 32 C2.98 32 4.96 32 7 32 C7 34.97 7 37.94 7 41 C7.99 41 8.98 41 10 41 C10 41.66 10 42.32 10 43 C10.66 43.33 11.32 43.66 12 44 C10.02 46.64 8.04 49.28 6 52 C4.68 51.34 3.36 50.68 2 50 C2.33 49.01 2.66 48.02 3 47 C1.515 46.505 1.515 46.505 0 46 C0.495 45.01 0.495 45.01 1 44 C-25.73 44 -52.46 44 -80 44 C-80 43.67 -80 43.34 -80 43 C-51.62 43 -23.24 43 6 43 C6 39.7 6 36.4 6 33 C4.02 33 2.04 33 0 33 C0 22.11 0 11.22 0 0 Z " fill="#B76A39" transform="translate(337,235)"/>
<path d="M0 0 C15.51 0 31.02 0 47 0 C47.66 3.3 48.32 6.6 49 10 C48.01 10 47.02 10 46 10 C46 7.36 46 4.72 46 2 C31.15 2.33 16.3 2.66 1 3 C0.67 2.01 0.34 1.02 0 0 Z " fill="#F2C860" transform="translate(175,43)"/>
<path d="M0 0 C-2.31 3.3 -4.62 6.6 -7 10 C-9.0625 7.6875 -9.0625 7.6875 -11 5 C-10 2 -10 2 -8.22265625 1.015625 C-7.15337891 0.63664062 -7.15337891 0.63664062 -6.0625 0.25 C-5.35222656 -0.01296875 -4.64195312 -0.2759375 -3.91015625 -0.546875 C-2 -1 -2 -1 0 0 Z " fill="#43C1D2" transform="translate(174,315)"/>
<path d="M0 0 C1.98 0 3.96 0 6 0 C6 0.33 6 0.66 6 1 C4.35 1 2.7 1 1 1 C1 8.92 1 16.84 1 25 C1.66 25 2.32 25 3 25 C2.67 27.64 2.34 30.28 2 33 C-0.24734928 29.40735167 -0.23200508 26.44857927 -0.1953125 22.265625 C-0.18886719 20.97011719 -0.18242187 19.67460937 -0.17578125 18.33984375 C-0.15907193 16.97655981 -0.14214206 15.61327856 -0.125 14.25 C-0.1149634 12.87110015 -0.10583873 11.49219335 -0.09765625 10.11328125 C-0.07408093 6.74201118 -0.0411727 3.37109364 0 0 Z " fill="#E8E1C0" transform="translate(364,190)"/>
<path d="M0 0 C0.33 0.66 0.66 1.32 1 2 C-2.75 7.75 -2.75 7.75 -5 10 C-5.71927295 12.31765729 -6.3909893 14.65095874 -7 17 C-7.99 17 -8.98 17 -10 17 C-10.33 18.32 -10.66 19.64 -11 21 C-12 18 -12 18 -10.7421875 15.29296875 C-7.47164549 9.85346897 -4.29581208 4.68634045 0 0 Z " fill="#CE773F" transform="translate(257,205)"/>
<path d="M0 0 C0 0.33 0 0.66 0 1 C-1.14597656 1.04898437 -2.29195312 1.09796875 -3.47265625 1.1484375 C-5.00262535 1.22352801 -6.53257218 1.29907306 -8.0625 1.375 C-9.19075195 1.42140625 -9.19075195 1.42140625 -10.34179688 1.46875 C-15.17592431 1.7198735 -19.33808288 2.61039009 -24 4 C-26.65234375 4.1953125 -26.65234375 4.1953125 -28.9375 4.125 C-30.09572266 4.09792969 -30.09572266 4.09792969 -31.27734375 4.0703125 C-31.84582031 4.04710937 -32.41429687 4.02390625 -33 4 C-23.03731699 -1.41351268 -10.97622694 -0.21735103 0 0 Z " fill="#368D97" transform="translate(208,310)"/>
<path d="M0 0 C-0.99 0.495 -0.99 0.495 -2 1 C-2 1.66 -2 2.32 -2 3 C-5.96 3.99 -9.92 4.98 -14 6 C-14.33 5.34 -14.66 4.68 -15 4 C-13.06767179 3.13419713 -11.12892806 2.28270059 -9.1875 1.4375 C-8.10855469 0.96183594 -7.02960938 0.48617187 -5.91796875 -0.00390625 C-3 -1 -3 -1 0 0 Z " fill="#DAB761" transform="translate(159,78)"/>
<path d="M0 0 C0.66 0.99 1.32 1.98 2 3 C1.34 3 0.68 3 0 3 C-0.0825 3.70125 -0.165 4.4025 -0.25 5.125 C-1.18480138 8.70840529 -2.74402615 11.08050443 -5 14 C-5.99 14.33 -6.98 14.66 -8 15 C-8 15.66 -8 16.32 -8 17 C-8.66 16.67 -9.32 16.34 -10 16 C-9.44570313 15.26394531 -8.89140625 14.52789062 -8.3203125 13.76953125 C-7.59585937 12.79371094 -6.87140625 11.81789063 -6.125 10.8125 C-5.40570313 9.84957031 -4.68640625 8.88664062 -3.9453125 7.89453125 C-2.19403401 5.28871325 -1.02540206 2.95207856 0 0 Z " fill="#291510" transform="translate(353,270)"/>
<path d="M0 0 C1.98348584 2.97522876 2.32008989 4.60044945 3 8 C3.99 9.485 3.99 9.485 5 11 C4.34 11 3.68 11 3 11 C2.67 11.99 2.34 12.98 2 14 C1.79503906 13.31292969 1.59007812 12.62585938 1.37890625 11.91796875 C1.10949219 11.01691406 0.84007812 10.11585938 0.5625 9.1875 C0.16224609 7.84751953 0.16224609 7.84751953 -0.24609375 6.48046875 C-0.80387873 4.64526945 -1.39344575 2.81966274 -2 1 C-1.34 0.67 -0.68 0.34 0 0 Z " fill="#DBB85E" transform="translate(304,159)"/>
<path d="M0 0 C0 3.15135387 -0.35152208 3.92631341 -1.9375 6.5 C-3.30339281 8.73242697 -4.15844227 10.47532682 -5 13 C-7 10 -7 10 -6.81640625 8.015625 C-5.87081356 5.68105166 -4.7692545 4.464834 -2.9375 2.75 C-2.38964844 2.22921875 -1.84179688 1.7084375 -1.27734375 1.171875 C-0.64505859 0.59179688 -0.64505859 0.59179688 0 0 Z " fill="#E2C366" transform="translate(76,98)"/>
<path d="M0 0 C0.33 0.99 0.66 1.98 1 3 C-0.625 5.6875 -0.625 5.6875 -3 8 C-5.75 8.3125 -5.75 8.3125 -8 8 C-5.33333333 5.33333333 -2.66666667 2.66666667 0 0 Z " fill="#111A10" transform="translate(138,287)"/>
<path d="M0 0 C0.33 0 0.66 0 1 0 C0.47606294 5.86809507 -0.76108858 10.54873741 -3 16 C-3.66 15.67 -4.32 15.34 -5 15 C-5 13.35 -5 11.7 -5 10 C-4.01 10 -3.02 10 -2 10 C-1.34 6.7 -0.68 3.4 0 0 Z " fill="#84CC4F" transform="translate(153,256)"/>
<path d="M0 0 C0.99 0 1.98 0 3 0 C1.43358249 4.30764815 -0.68336156 8.06171464 -3 12 C-3.66 10.68 -4.32 9.36 -5 8 C-4.01 7.67 -3.02 7.34 -2 7 C-1.855625 6.21625 -1.71125 5.4325 -1.5625 4.625 C-1 2 -1 2 0 0 Z " fill="#86D14F" transform="translate(61,233)"/>
<path d="M0 0 C0.66 0 1.32 0 2 0 C1.69128878 1.79232337 1.37790936 3.58384321 1.0625 5.375 C0.88847656 6.37273437 0.71445313 7.37046875 0.53515625 8.3984375 C0 11 0 11 -1 13 C-2.32 12.67 -3.64 12.34 -5 12 C-4.67 11.01 -4.34 10.02 -4 9 C-3.01 9 -2.02 9 -1 9 C-0.67 6.03 -0.34 3.06 0 0 Z " fill="#DFBE67" transform="translate(90,164)"/>
<path d="M0 0 C2 2 2 2 2 5 C0.25 6.0625 0.25 6.0625 -2 7 C-3.32 6.67 -4.64 6.34 -6 6 C-4.02 4.02 -2.04 2.04 0 0 Z " fill="#F0C867" transform="translate(83,91)"/>
<path d="M0 0 C0.33 0 0.66 0 1 0 C1.25 2.25 1.25 2.25 1 5 C-1 7.3125 -1 7.3125 -3 9 C-3.99 8.67 -4.98 8.34 -6 8 C-5.02471263 6.66382648 -4.04466681 5.3311249 -3.0625 4 C-2.24458984 2.88625 -2.24458984 2.88625 -1.41015625 1.75 C-0.94480469 1.1725 -0.47945313 0.595 0 0 Z " fill="#121B11" transform="translate(83,209)"/>
<path d="M0 0 C1.60080151 4.00200378 0.29279692 7.04556236 -1 11 C-1.99 11 -2.98 11 -4 11 C-3.21681311 7.08406554 -1.60820142 3.63593365 0 0 Z " fill="#BED9D9" transform="translate(221,291)"/>
<path d="M0 0 C2.38564077 0.57584432 4.66682784 1.22227595 7 2 C7.33 3.65 7.66 5.3 8 7 C7.01 7 6.02 7 5 7 C3.61328125 5.46875 3.61328125 5.46875 2.3125 3.5 C1.87550781 2.8503125 1.43851562 2.200625 0.98828125 1.53125 C0.49908203 0.77328125 0.49908203 0.77328125 0 0 Z " fill="#E6C367" transform="translate(348,195)"/>
<path d="M0 0 C1 3 1 3 1 5 C-0.5 6.625 -0.5 6.625 -2 8 C-3.32 7.34 -4.64 6.68 -6 6 C-4.02 4.02 -2.04 2.04 0 0 Z " fill="#EEC865" transform="translate(92,82)"/>
<path d="M0 0 C0 3.10981343 -0.46713709 4.39396369 -1.8125 7.125 C-2.14894531 7.82882813 -2.48539062 8.53265625 -2.83203125 9.2578125 C-4 11 -4 11 -7 12 C-5.44298069 7.32894208 -2.91552627 3.91294315 0 0 Z " fill="#358B2F" transform="translate(74,238)"/>
<path d="M0 0 C2.34914492 2.34914492 2.73140357 3.95679446 3.625 7.125 C3.88539063 8.03507813 4.14578125 8.94515625 4.4140625 9.8828125 C4.70410156 10.93082031 4.70410156 10.93082031 5 12 C2 11 2 11 0 8 C-0.25760279 5.30547479 -0.08900053 2.71451625 0 0 Z " fill="#CCAC5B" transform="translate(317,145)"/>
<path d="M0 0 C2.63840764 1.03937271 3.54887645 2.4663835 5.0625 4.8125 C4.0725 5.3075 4.0725 5.3075 3.0625 5.8125 C3.0625 5.1525 3.0625 4.4925 3.0625 3.8125 C1.0825 3.8125 -0.8975 3.8125 -2.9375 3.8125 C-3.2675 2.8225 -3.5975 1.8325 -3.9375 0.8125 C-1.9375 -0.1875 -1.9375 -0.1875 0 0 Z " fill="#D7B863" transform="translate(295.9375,74.1875)"/>
<path d="M0 0 C0.66 0.99 1.32 1.98 2 3 C1.67 3.33 1.34 3.66 1 4 C0.76807135 5.51469448 0.58784762 7.03754562 0.4375 8.5625 C0.35371094 9.38878906 0.26992187 10.21507812 0.18359375 11.06640625 C0.12300781 11.70449219 0.06242187 12.34257812 0 13 C-2.32536063 9.51195905 -2.33457898 8.09859246 -2 4 C-1 1.625 -1 1.625 0 0 Z " fill="#327F32" transform="translate(66,251)"/>
<path d="M0 0 C1.1171875 1.734375 1.1171875 1.734375 2 4 C1.3203125 6.140625 1.3203125 6.140625 0.125 8.25 C-0.26429687 8.95640625 -0.65359375 9.6628125 -1.0546875 10.390625 C-1.36664063 10.92171875 -1.67859375 11.4528125 -2 12 C-3.15957207 8.52128379 -2.77456651 7.65780355 -1.5625 4.3125 C-1.13130859 3.10013672 -1.13130859 3.10013672 -0.69140625 1.86328125 C-0.46324219 1.24839844 -0.23507813 0.63351563 0 0 Z " fill="#2A2115" transform="translate(93,162)"/>
<path d="M0 0 C0.66 0.99 1.32 1.98 2 3 C1.071875 3.4021875 1.071875 3.4021875 0.125 3.8125 C-2.2995233 4.95556848 -2.2995233 4.95556848 -4 8 C-4.99 7.67 -5.98 7.34 -7 7 C-4.69 4.69 -2.38 2.38 0 0 Z " fill="#1E1712" transform="translate(122,120)"/>
<path d="M0 0 C-1 3 -1 3 -2.75 4.1875 C-5.29960574 5.10819096 -7.30923081 5.14948718 -10 5 C-3.63636364 0 -3.63636364 0 0 0 Z " fill="#261F16" transform="translate(154,100)"/>
<path d="M0 0 C0.33 1.32 0.66 2.64 1 4 C-2.3 3.67 -5.6 3.34 -9 3 C-4.5 -0.375 -4.5 -0.375 0 0 Z " fill="#E8C366" transform="translate(295,76)"/>
<path d="M0 0 C0.66 1.32 1.32 2.64 2 4 C1 7 1 7 -3 9 C-2.01 6.03 -1.02 3.06 0 0 Z " fill="#7BC147" transform="translate(43,220)"/>
<path d="M0 0 C2.64752004 2.57784846 4.94432065 4.91648098 7 8 C6.01 8.33 5.02 8.66 4 9 C0 2.25 0 2.25 0 0 Z " fill="#121E10" transform="translate(109,209)"/>
<path d="M0 0 C1.66666667 0 3.33333333 0 5 0 C5 2.64 5 5.28 5 8 C1.75267068 6.37633534 1.29844864 3.24612161 0 0 Z " fill="#DFBF66" transform="translate(359,209)"/>
<path d="M0 0 C4.875 4.75 4.875 4.75 6 7 C2.74456771 6.65120368 1.98126893 5.97866739 -0.25 3.4375 C-1.11625 2.2309375 -1.11625 2.2309375 -2 1 C-1.34 0.67 -0.68 0.34 0 0 Z " fill="#201915" transform="translate(283,130)"/>
<path d="M0 0 C0.99 0.33 1.98 0.66 3 1 C1.1875 4 1.1875 4 -1 7 C-1.99 7 -2.98 7 -4 7 C-2.68 4.69 -1.36 2.38 0 0 Z " fill="#BEDBDD" transform="translate(241,326)"/>
<path d="M0 0 C0.66 0.66 1.32 1.32 2 2 C1.34 2 0.68 2 0 2 C0 2.66 0 3.32 0 4 C-1.29233607 5.37310707 -2.62437146 6.71034824 -4 8 C-4.99 7.67 -5.98 7.34 -7 7 C-4.69 4.69 -2.38 2.38 0 0 Z " fill="#0A1209" transform="translate(96,196)"/>
<path d="M0 0 C-3.99560608 2.83022097 -7.42737323 1.76210446 -12 1 C-8.00439392 -1.83022097 -4.57262677 -0.76210446 0 0 Z " fill="#D9B65A" transform="translate(69,173)"/>
<path d="M0 0 C1.10348268 3.31044803 0.99444068 5.65506316 0 9 C-0.99 9.495 -0.99 9.495 -2 10 C-3.06351675 6.61608307 -3.21442982 5.4195366 -1.5625 2.1875 C-1.046875 1.465625 -0.53125 0.74375 0 0 Z " fill="#291F16" transform="translate(316,128)"/>
<path d="M0 0 C1.98 0.495 1.98 0.495 4 1 C2.68 3.31 1.36 5.62 0 8 C-0.33 8 -0.66 8 -1 8 C-0.67 5.36 -0.34 2.72 0 0 Z " fill="#E0C065" transform="translate(314,125)"/>
<path d="M0 0 C3.77545388 1.09068668 6.47043472 1.9083091 9 5 C8.01 5.495 8.01 5.495 7 6 C4.5249829 4.88568235 2.32116581 3.41849022 0 2 C0 1.34 0 0.68 0 0 Z " fill="#DDBC66" transform="translate(118,83)"/>
<path d="M0 0 C2.29633824 3.44450737 2.54016485 5.93812283 3 10 C2.01 10 1.02 10 0 10 C0 6.7 0 3.4 0 0 Z " fill="#C9A95C" transform="translate(221,43)"/>
<path d="M0 0 C1.98 0.495 1.98 0.495 4 1 C3.34 2.98 2.68 4.96 2 7 C0.4375 5.1875 0.4375 5.1875 -1 3 C-0.67 2.01 -0.34 1.02 0 0 Z " fill="#4AC5D1" transform="translate(229,317)"/>
<path d="M0 0 C2.15377564 2.62198774 3.40072174 4.64404172 4 8 C3.01 8.33 2.02 8.66 1 9 C0.67 6.03 0.34 3.06 0 0 Z " fill="#182111" transform="translate(132,239)"/>
<path d="M0 0 C0.66 0.33 1.32 0.66 2 1 C-1.32307692 5.8 -1.32307692 5.8 -4.75 6.8125 C-5.4925 6.874375 -6.235 6.93625 -7 7 C-4.66666667 4.66666667 -2.33333333 2.33333333 0 0 Z " fill="#CD7840" transform="translate(265,198)"/>
<path d="M0 0 C1.65 0 3.3 0 5 0 C5 2.64 5 5.28 5 8 C2.98863724 5.44008376 1.37154504 2.95409701 0 0 Z " fill="#E8C461" transform="translate(359,190)"/>
<path d="M0 0 C-2.91765 1.9451 -4.62537285 2.45276317 -8 3 C-8.33 2.34 -8.66 1.68 -9 1 C-3.375 -1.125 -3.375 -1.125 0 0 Z " fill="#181410" transform="translate(77,181)"/>
<path d="M0 0 C0.99 0.33 1.98 0.66 3 1 C2.34 1.66 1.68 2.32 1 3 C0.30251417 4.31747324 -0.36959957 5.64914193 -1 7 C-1.66 5.35 -2.32 3.7 -3 2 C-2.01 1.34 -1.02 0.68 0 0 Z " fill="#B9D4D6" transform="translate(151,309)"/>
<path d="M0 0 C0.66 0.33 1.32 0.66 2 1 C0.35 2.65 -1.3 4.3 -3 6 C-3.99 5.34 -4.98 4.68 -6 4 C-4.02 2.68 -2.04 1.36 0 0 Z " fill="#1F2525" transform="translate(189,258)"/>
<path d="M0 0 C2.25245881 2.68841859 3.88213958 4.64641875 5 8 C1.125 6.125 1.125 6.125 0 5 C-0.04063832 3.33382885 -0.042721 1.66611905 0 0 Z " fill="#111C0E" transform="translate(124,227)"/>
<path d="M0 0 C0.66 0 1.32 0 2 0 C2.66 2.31 3.32 4.62 4 7 C3.01 7.33 2.02 7.66 1 8 C0.67 5.36 0.34 2.72 0 0 Z " fill="#78BC47" transform="translate(149,222)"/>
<path d="M0 0 C0.66 0.66 1.32 1.32 2 2 C-0.31 3.65 -2.62 5.3 -5 7 C-3.92643531 2.70574125 -3.4915227 2.25259529 0 0 Z " fill="#190E0D" transform="translate(261,199)"/>
<path d="M0 0 C0.66 0.33 1.32 0.66 2 1 C0.125 5.75 0.125 5.75 -1 8 C-1.66 8 -2.32 8 -3 8 C-1.125 2.25 -1.125 2.25 0 0 Z " fill="#281E14" transform="translate(98,151)"/>
<path d="M0 0 C4 4.625 4 4.625 4 8 C3.34 8 2.68 8 2 8 C0.23537317 4.91190305 0 3.76687864 0 0 Z " fill="#272018" transform="translate(289,137)"/>
<path d="M0 0 C1.32 1.32 2.64 2.64 4 4 C2.02 4.99 2.02 4.99 0 6 C-0.38218767 4.34385343 -0.71395102 2.67542976 -1 1 C-0.67 0.67 -0.34 0.34 0 0 Z " fill="#F2C767" transform="translate(119,116)"/>
<path d="M0 0 C0 0.66 0 1.32 0 2 C0.99 1.67 1.98 1.34 3 1 C3.33 2.32 3.66 3.64 4 5 C-1.75 3.25 -1.75 3.25 -4 1 C-2 0 -2 0 0 0 Z " fill="#1A1511" transform="translate(116,78)"/>
</svg>
